<svg xmlns="http://www.w3.org/2000/svg" xml:space="preserve" viewBox="0 0 1024 1024"><desc>A Pied-Currawong (a black bird with white highlights on tail and wings and a striking yellow eye) from South-East Queensland posed in a G-shape.</desc><path d="M517.418 3.486c-131.978 0-250.64 43.53-341.703 124.205C79.415 213.007 12.269 340.88 2.613 470.225-4.68 567.939 27.756 673.479 94.54 747.139c9.002 9.929 19.26 18.662 30.309 26.277a34 34 0 0 0-9.077 24.635c.839 18.361 10.348 34.414 20.612 44.322 3.99 3.852 8.055 6.908 12.094 9.633-1.05 4.735-1.335 9.84-.248 14.869 2.822 13.067 10.58 19.565 15.521 23.104s8.791 5.108 12.402 6.48c7.222 2.744 13.706 4.161 20.604 5.51 1.544.302 3.126.49 4.693.77a51 51 0 0 0 .106 6.642c.767 9.645 6.213 19.796 12.299 25.531 6.085 5.736 11.947 8.217 16.853 9.85 9.812 3.265 17.331 3.457 25.209 3.502 22.09.125 47.324-3.99 67.84-7.756-.197.493-.39.922-.584 1.418-1.995 5.076-3.977 10.184-5.37 17.213-1.391 7.029-4.795 19.079 6.895 34.44 9.866 12.963 31.19 17.057 41.082 15.138.646-.125 1.102-.286 1.705-.42 1.736 1.828 3.624 3.554 5.817 4.986 13.08 8.546 29.59 9.987 41.213 7.883s19.99-6.246 27.052-9.727c9.814-4.836 17.179-7.515 20.061-8.798.98.352 1.339.504 2.506.904 7.261 2.484 17.916 5.623 31.853 8.07 27.875 4.895 69.074 7.207 129.004-.392 45.66-5.79 91.496-16.838 134.928-34.68 127.274-49.813 232.112-165.168 259.598-301.426q.19-.947.328-1.904c9.672-67.56 2.338-148.026-31.278-210.695a299.5 299.5 0 0 0 9.15-41.545c16.687-113.289-18.868-221.096-102.237-297.11C812.109 47.85 683.952 3.486 517.418 3.486m-.614 240.488c118.081-8.077 325.673 33.269 391.692 142.692-100.06-73.765-183.953-20.829-250.404-11.01-113.77 16.81-320.908 89.426-308.87 151.073 3.613 18.502 172.727 16.783 239.688 20.158 64.652 3.258 160.099 17.72 160.088 23.195-.022 11.98-158.22 14.212-275.147 125.678-32.066 30.568-85.173-20.034-98.614-41.857-17.16-27.858-34.641 54.961-60.231 57.535s-59.718-35.03-77.02-63.436c-27.992-45.953-42.453-104.65-34.028-157.792 11.024-69.533 51.075-138.768 106.195-182.564 56.434-44.84 134.74-58.753 206.651-63.672m-60.466 756.76.92.332c-1.68-.352-1.75-.633-.92-.332" style="opacity:1;baseline-shift:baseline;display:inline;overflow:visible;vector-effect:none;fill:#f9f9f9;stroke-linecap:round;stroke-linejoin:round;paint-order:markers stroke fill;stop-color:#000;stop-opacity:1"/><path fill="#1a1a1a" d="M29.905 476.644c8.842-120.62 75.112-242.77 165.89-322.685C281.55 78.466 403.86 41.5 518.026 37.154c111.567-4.248 230.419 26.295 322.661 89.868 40.204 27.708 72.246 57.105 98.686 97.893 14.183 21.878 20.097 36.228 33.049 81.083 14.065 48.708-78.549-.035-115.718-21.332-31.592-18.1-62.897-37.924-97.505-49.237-79.618-26.027-164.318-46.475-247.91-41.098-70.42 4.53-142.55 20.89-202.689 61.096-45.414 30.078-88.345 74.687-113.57 124.292-13.623 27.993-37.803 78.285-45.572 128.161-8.217 130.432 62.68 188.187 62.68 188.187s-31.213-10.985-44.18-20.83c-10.428-7.917-25.68-29.718-25.68-29.718s-2.068 26.357 27.244 72.16c29.125 45.51 51.89 54.21 51.474 59.285-31.866 7.527-78.79-18.219-104.515-46.335-60.378-65.991-93.114-164.78-86.575-253.985" style="display:inline;stroke-linecap:round;stroke-linejoin:round;paint-order:markers stroke fill"/><path fill="#f9f9f9" stroke="#333" stroke-width="8" d="M936.086 235.161c19.59 17.143 28.503 45.242 34.147 70.655 8.206 36.947-1.215 113.541-1.215 113.541-33.548-75.195-55.639-99.648-111.38-138.172-10.525-18.496-27.608-32.864-44.272-48.01-27.54-25.03-90.352-65.585-90.352-65.585s157 18.502 213.072 67.57M113.49 581.767c-3.82-38.772 6.337-78.435 19.907-114.839 23-61.7 59.383-91.504 59.383-91.504s-31.168 60.643-41.349 131.579c-8.217 130.432 60.706 189.064 60.706 189.064s-30.841-11.495-44.18-20.83c-12.234-8.562-23.762-18.957-31.823-31.525-11.869-18.505-20.488-40.066-22.644-61.945" style="display:inline;stroke:#1a1a1a;stroke-linecap:round;stroke-linejoin:round;paint-order:markers stroke fill"/><path fill="#1a1a1a" stroke="#1a1a1a" stroke-width="8" d="M734.679 645.146c30.368-11.053 28.378-39.963 28.378-39.963s-73.979 11.407-134.843 44.465c-48.383 26.28-96.165 53.844-136.234 98.81-26.473 14.335-99.947-23.155-117.986-48.905-16.751 23.865 3.328 49.417 9.3 58.487-58.304 9.252-106.36.408-150.202-46.565-32.864 28.246 20.54 71.781 34.07 85.536-39.265-5.16-114.772-7.707-116.406 6.96-2.81 25.204 74.449 51.82 74.449 51.82s-44.94 1.776-45.353 8.88c-.995 17.106 93.503 18.022 93.503 18.022s-45.822 25.94-37.63 31.157c11.072 7.053 68.236-.372 103.358-6.96 66.073-12.393 171.49-46.21 232.999-87.513 36.622-24.59 112.67-92.36 147.738-125.22 44.662-41.848 2.304-44.44 14.86-49.01" style="display:inline;stroke-linecap:round;stroke-linejoin:round;paint-order:markers stroke fill"/><path fill="#1a1a1a" stroke="#1a1a1a" d="M677.12 410.833c-3.717-4.258-116.517 25.877-161.262 41.493-67.99 23.727-135.045 58.74-132.781 62.802 3.774 6.77 343.823-14.869 399.771 35.459 15.824 14.234 16.377 45.847 5.172 64.136-27.41 44.738-62.243 26.68-145.523 59.983-178.598 71.422-216.61 137.81-211.51 245.774 1.406 29.769 20.983 53.384 64.448 61.967 21.79 6.6 85.188 11.096 126.739 3.378 84.123-15.627 171.82-43.127 237.022-98.532 63.404-53.878 123.033-130.06 133.308-212.627 17.675-142.025-35.322-203.227-67.006-231.295-55.606-49.26-101.634-54.855-155.167-56.58-32.07-1.033-67.53 7.231-93.211 24.042" style="display:inline;stroke-linecap:round;stroke-linejoin:round;paint-order:markers stroke fill"/><path fill="#1a1a1a" d="M687.394 686.9s-78.374 2.221-179.84 88.532c-35.723 30.387-64.275 65.653-94.08 101.12-14.612 17.387-55.016 39.313-59.52 58.88-2.829 12.285 10.014 15.73 10.014 15.73s-19.604 19.475-13.214 30.563c7.407 12.855 37.399-5.21 37.399-5.21s-6.753 12.358 3.134 17.157c10.487 5.09 54.306-5.875 77.94-20.065 29.392-.75 41.552-3.844 63.927-10.655 19.063-5.803 55.387-22.497 55.387-22.497s-9.028 8.634 9.326 13.96c8.229 2.39 17.364-1.858 25.1-5.543 20.013-9.533 52.053-41.387 52.053-41.387s-8.154 8.224 2.987 14.934c14.508 8.738 84.252-29.345 112.213-52.907 39.178-33.015 74.44-84.06 93.014-119.467 22.093-42.118 29.013-92.16 29.013-92.16" style="display:inline;stroke-linecap:round;stroke-linejoin:round;paint-order:markers stroke fill"/><path fill="#333" d="M871.937 754.348c-17.865 34.81-50.956 76.827-88.13 107.713-13.305 11.054-36.29 25.867-58.576 37.012-8.722 4.361-31.196 13.48-41.969 15.175 4.852-9.969 8.159-23.628-.551-24.476-13.14 20.736-40.307 37.978-63.679 52.156-11.37 6.898-20.248 2.573-20.248 2.573s19.146-10.645 10.72-22.863c-25.371 16.78-59.297 28.156-77.182 33.6-22.266 6.778-34.975 7.788-63.937 7.523-12.827 5.486-28.626 14.463-44.97 21.27-9.801 4.082-28.533 10.154-32.823 4.75-4.169-6.572 13.784-24.49 13.784-24.49s-14.02 6.833-21.164 10.001c-9.39 4.164-25.717 11.284-29.39 5.607-2.589-4 10.245-16.767 17.488-23.18a2971 2971 0 0 1 12.838-11.26s-15.868-.21-18.413-.89c0 0-1.907-.606-3.452-1.902s-2.551-1.902-1.675-5.707c1.376-5.978 13.815-13.838 26.084-23.76 12.269-9.92 25.844-19.546 34.234-29.53 29.858-35.53 57.927-71.203 93.032-101.064 50.094-42.613 92.796-63.813 124.323-74.894 48.804-17.154 60.263-14.26 58.655-21.997-1.216-5.854-35.047 3.562-58.92 9.42-41.592 10.206-87.223 30.903-138.594 74.602-36.341 30.913-64.396 66.27-94.15 101.674-6.22 7.403-18.667 16.694-31.38 26.974-12.711 10.28-23.46 21.925-26.588 35.513-1.952 8.48 2.041 15.74 6.21 19.238-4.508 4.987-8.02 10.86-9.965 17.312-1.235 4.452-1.498 9.86 1.286 14.69 3.192 5.54 9.439 7.87 14.69 8.025 7.216.246 13.99-2.179 20.346-5.292-.12 5.444 3.844 9.5 8.44 11.944 5.169 2.508 10.396 2.243 16.87 1.663s13.952-1.986 21.833-3.994c15.137-3.858 31.872-11.563 44.446-18.813 23.959 2.49 37.474 2.295 59.444-4.393 16.823-5.12 40.998-15.93 49.879-19.965 7.523 17.447 34.48 9.576 47.355 3.406 11.52-5.487 23.021-14.54 40.406-30.805 4.453 6.043 9.939 10.298 31.597 3.79 27.2-8.175 73.894-34.673 96.38-53.622 40.286-33.948 75.306-84.535 93.977-124.88 20.664-44.649 28.878-104.297 22.69-104.2-4.42.07-2.098 30.062-41.25 106.346" style="display:inline;fill:#f9f9f9;stroke-linecap:round;stroke-linejoin:round;paint-order:markers stroke fill"/><path fill="#f9f9f9" d="M583.82 779.502c-22.275 9.242-47.249 25.12-53.892 38.013-7.755 12.457 16.443 10.47 24.014 7.944 7.616-2.746 8.807-3.017 18.426-8.018-19.347 14.696-29.108 21.373-45.685 40.78-3.996 4.677-11.115 12.74-6.823 17.147 9.451 9.707 52.18-21.998 71.751-36.478 9.657-7.145 23.64-21.143 23.64-21.143s-29.37-2.08-22.253-11.319c-24.72-2.235-5.66-24.976-9.178-26.926m70.874 61.367c-10.626 1.507 2.452-7.387.49-10.148-21.002 4.37-30.065 3.1-31.042-9.153-31.986 22.311-68.96 50.296-95.467 78.368-4.838 5.122-15.371 18.005-10.706 24.056 5.778 7.495 24.241-.674 33.736-5.117 18.597-8.703 34.538-20.33 52.064-31.045-4.054 7.56-12.896 19.548-8.493 24.403 6.21 6.85 24.98-7.32 34.16-14.548 8.591-6.765 18.374-17.272 23.08-21.966-6.458 17.45.998 22.125 17.278 11.78 8.258-5.249 15.58-11.575 23.172-17.735-3.833 6.697-2.682 11.318 1.736 14.208 9.315 6.09 54.598-11.173 69.498-26.843 7.87-9.21 17.237-21.08 16.848-33.23-.282-8.797-20.956 6.016-28.793 8.02-17.628 4.505-26.246-7.407-26.246-7.407s-17.487 23.676-35.821 20.47c-14.868-2.6-14.535-12.043-14.535-12.043s-9.685 5.307-20.96 7.93" style="stroke-linecap:round;stroke-linejoin:round;paint-order:markers stroke fill"/><path fill="#fc0" d="M797.68 444.273a33.036 37.11 0 0 1-32.948 37.11 33.036 37.11 0 0 1-33.125-36.908 33.036 37.11 0 0 1 32.765-37.31 33.036 37.11 0 0 1 33.304 36.706" style="stroke-width:1.5;stroke-linecap:round;stroke-linejoin:round;paint-order:markers stroke fill"/></svg>