<svg xmlns="http://www.w3.org/2000/svg" width="236.428" height="22.369"><g style="fill:#f9f9f9;stroke:#1a1a1a;stroke-width:2.64583;stroke-linecap:round;stroke-linejoin:round;paint-order:markers stroke fill"><path d="M9.172 15.979c1.51 0 3.225-.242 4.965-.915l.66-4.165-2.273-.445-.254.66c-.685 1.779-1.905 2.414-3.289 2.414-1.537 0-3.442-.864-3.442-4.877 0-4 1.905-4.864 3.442-4.864 1.384 0 2.604.622 3.29 2.413l.253.66 2.274-.457-.66-4.153c-1.576-.673-3.138-.914-4.649-.914-4.813 0-8.166 2.552-8.166 7.315 0 4.762 3.023 7.328 7.849 7.328m12.166 0c1.55 0 3.188-.648 4.928-1.613v1.295l.533.165 4.8-1.46v-2.134l-1.612-.444V1.653l-.495-.152-5.093 1.46v2.134l1.65.482v6.884c-.685.254-1.536.533-2.387.533-.787 0-1.524-.61-1.524-1.917V1.666l-.508-.153-5.092 1.46v2.135l1.65.47v6.502c0 2.35.572 3.899 3.15 3.899m11.938-.305h9.703v-1.892L39.423 12.6V5.425a7.3 7.3 0 0 1 2.49-.406c.558 0 1.701-.013 2.514 1.206l.508.762 1.32-.292-.8-4.94c-.393-.203-1.04-.42-1.854-.42-1.968 0-3.556 1.258-4.737 2.833v-2.49l-.508-.165-5.08 1.46v2.135l2.185.508v7.137l-2.185 1.029zm15.748 0h9.703v-1.892L55.171 12.6V5.425a7.3 7.3 0 0 1 2.49-.406c.558 0 1.701-.013 2.514 1.206l.508.762 1.32-.292-.8-4.94c-.393-.203-1.04-.42-1.854-.42-1.968 0-3.556 1.258-4.737 2.833v-2.49l-.508-.165-5.08 1.46v2.135l2.185.508v7.137l-2.185 1.029zm23.927.152h.533l4.84-1.46v-2.134l-1.652-.47V5.793c0-3.708-2.299-4.47-5.385-4.47-2.146 0-3.924.394-5.36.889l-.558 3.543 2.185.457.342-.635c.75-1.384 1.677-1.79 2.604-1.79 1.118 0 2.222.406 2.222 1.956V7.47c-4.99.546-8.23 1.232-8.23 4.699 0 2.692 2.07 3.797 3.887 3.797 1.74 0 3.353-.94 4.572-1.803zm-4.178-4.19c0-1.283 1.625-1.906 3.95-2.21v3.302c-.686.342-1.41.508-1.97.508-1.282 0-1.98-.75-1.98-1.6m13.868 4.038h2.781l1.499-6.033h.165l1.562 6.033h2.96l1.65-11.71.927-.431V1.64H89.74v1.893l.915.47-.597 5.054h-.241L88.33 4.561h-1.74l-1.423 4.496h-.165l-.61-4.99 1.245-.534V1.64H79.63v1.893l1.27.597zm20.015.305c3.81 0 6.947-2.502 6.947-7.328 0-4.813-3.137-7.315-6.947-7.315S95.71 3.838 95.71 8.65c0 4.826 3.137 7.328 6.947 7.328m-2.692-7.392c0-3.835 1.27-4.673 2.692-4.673s2.693.838 2.693 4.673c0 3.848-1.27 4.674-2.693 4.674-1.422 0-2.692-.826-2.692-4.674m19.634 7.087h6.236v-1.892l-1.169-.56V5.236c0-2.35-.61-3.9-3.187-3.9-1.562 0-3.2.648-4.953 1.614V1.69l-.496-.178-4.838 1.46v2.135l1.613.457v7.683l-1.105.534v1.892h6.235v-1.892l-1.168-.56V4.855c.686-.254 1.524-.547 2.388-.547.787 0 1.55.623 1.55 1.93v7.011l-1.106.534zm13.767 5.372c4.56 0 7.849-1.753 7.849-4.928 0-1.955-1.156-3.429-3.976-3.429h-6.21l.927-2.057c.584.114 1.22.165 1.88.165 3.48 0 6.172-1.55 6.172-4.724 0-.813-.178-1.512-.495-2.121l1.778.089.533-1.664-.66-.711-3.455.52c-1.041-.571-2.387-.85-3.873-.85-3.48 0-6.172 1.549-6.172 4.737 0 1.79.85 3.06 2.222 3.835l-2.82 5.664.344.445h1.257l-1.575 3.238.178.686c1.803.648 3.848 1.105 6.096 1.105m-2.49-4.864.026-.165h4.318c1.613 0 2.502.368 2.502 1.117 0 1.194-2.222 1.626-3.746 1.626-2.236 0-3.328-.775-3.1-2.578m.826-10.11c0-1.74.864-2.577 2.108-2.577 1.258 0 2.147.838 2.147 2.578 0 1.727-.89 2.565-2.147 2.565-1.244 0-2.108-.838-2.108-2.565" aria-label="currawong"/><path fill="#fc0" d="M149.837 16.207c1.638 0 2.997-1.117 2.997-2.933 0-1.83-1.359-2.909-2.997-2.909-1.664 0-3.035 1.08-3.035 2.909 0 1.816 1.371 2.933 3.035 2.933" aria-label="."/><path d="M164.861 21.046c4.56 0 7.849-1.753 7.849-4.928 0-1.955-1.156-3.429-3.975-3.429h-6.21l.926-2.057a10 10 0 0 0 1.88.165c3.48 0 6.172-1.55 6.172-4.724 0-.813-.178-1.512-.495-2.121l1.778.089.533-1.664-.66-.711-3.455.52c-1.041-.571-2.387-.85-3.873-.85-3.48 0-6.172 1.549-6.172 4.737 0 1.79.85 3.06 2.222 3.835l-2.82 5.664.344.445h1.257l-1.575 3.238.178.686c1.803.648 3.848 1.105 6.096 1.105m-2.49-4.864.026-.165h4.318c1.613 0 2.502.368 2.502 1.117 0 1.194-2.222 1.626-3.746 1.626-2.236 0-3.328-.775-3.1-2.578m.826-10.11c0-1.74.864-2.577 2.109-2.577 1.257 0 2.146.838 2.146 2.578 0 1.727-.89 2.565-2.146 2.565-1.245 0-2.109-.838-2.109-2.565m19.99 9.754h.534l4.838-1.46v-2.134l-1.65-.47v-5.97c0-3.708-2.3-4.47-5.386-4.47-2.146 0-3.924.394-5.359.889l-.559 3.543 2.185.457.343-.635c.749-1.384 1.676-1.79 2.603-1.79 1.118 0 2.223.406 2.223 1.956V7.47c-4.992.546-8.23 1.232-8.23 4.699 0 2.692 2.07 3.797 3.886 3.797 1.74 0 3.353-.94 4.572-1.803zm-4.178-4.19c0-1.283 1.625-1.906 3.95-2.21v3.302c-.686.342-1.41.508-1.969.508-1.283 0-1.981-.75-1.981-1.6m16.65-5.944v9.982h3.962v-1.892l-.66-.42V4.664c0-.14 0-.267-.013-.406.241-.051.47-.09.698-.09.673 0 1.004.166 1.004 1.525v9.982h4.064v-1.892l-.762-.445V4.346c0-2.236-.762-3.01-2.096-3.01-1.232 0-2.273.635-3.162 1.435-.33-.965-1.003-1.435-1.981-1.435-1.118 0-2.109.61-2.972 1.397V1.69l-.495-.178-3.67 1.283v1.359l1.218.686v8.496l-.762.445v1.892h4.763v-1.892l-.699-.432V4.23a3 3 0 0 1 .56-.063c.672 0 1.003.165 1.003 1.524m17.92 10.287c1.65 0 3.047-.28 4.774-.978l.902-3.137-2.184-.457-.496.774c-.622.978-1.549 1.36-2.578 1.36-2.705 0-3.683-2.07-3.86-4.433h9.283v-1.13c0-4.496-2.032-6.63-5.93-6.63-4.42 0-7.557 2.921-7.557 7.697 0 4.368 2.781 6.934 7.645 6.934m-3.404-8.852c.292-2.324 1.498-3.175 2.857-3.175 1.93 0 2.464 1.333 2.515 3.175zm18.072 8.852c4.61 0 6.858-1.956 6.858-4.852 0-2.832-2.235-3.683-5.372-4.28-1.854-.355-3.239-.698-3.239-1.854 0-1.003 1.13-1.359 2.667-1.371 1.651 0 2.769.444 3.251 1.854l.267.787 2.16-.457-.585-3.658c-1.892-.622-3.467-.812-4.915-.812-4.521 0-6.655 1.905-6.655 4.47 0 2.477 1.956 3.975 4.636 4.445 2.527.457 3.937.635 3.937 1.93 0 .775-.546 1.474-2.896 1.474-2.032.012-3.099-.508-3.569-1.905l-.254-.762-2.184.457.584 3.746c1.245.356 3.099.788 5.309.788" aria-label="games"/></g></svg>