<svg xmlns="http://www.w3.org/2000/svg" viewBox="0 0 1024 1024"><path fill="#fc0" d="M967.111 512A455.111 512 0 0 1 512 1024 455.111 512 0 0 1 56.889 512 455.111 512 0 0 1 512 0a455.111 512 0 0 1 455.111 512"/><path fill="#1a1a1a" d="M748.152 479.298A292.732 336.317 0 0 1 455.42 815.616a292.732 336.317 0 0 1-292.732-336.318A292.732 336.317 0 0 1 455.42 142.981a292.732 336.317 0 0 1 292.732 336.317"/><path fill="#f9f9f9" d="M211.864 412.452c0 63.389 51.032 114.42 114.42 114.42h22.714c42.689 0 78.617-27.914 90.604-66.559 1.21-3.293 2.046-6.449 2.432-9.376l.082-.63c.92-4.751 1.49-9.63 1.679-14.611.07-24.385-8.73-41.665-33.69-50.587-3.838-1.243-12.175-2.963-20.16-3.02-8.22-.059-16.207 1.736-22.37 5.77-.893-1.021-27.965 6.21-38.703 9.959-16.318 5.694-32.411 14.097-31.868 15.072.664 1.19 21.843-.14 32.758.154 14.087.38 28.336-.31 42.225 2.076 7.189 1.235 17.732 3.375 20.962 6.28 3.798 3.417 4.015 11.168 1.242 15.393-9.091 13.85-14.939 6.403-34.926 14.396-27.086 10.832-39.99 24.022-45.96 37.008-41.144-5.706-72.44-37.34-72.44-75.745 0-42.47 38.273-76.662 75.935-76.662s95.66 6.696 120.83 54.115c11.626-66.451-56.294-91.873-115.514-91.873s-110.252 51.031-110.252 114.42"/></svg>