<svg xmlns="http://www.w3.org/2000/svg" viewBox="0 0 32 32"><g style="stroke-width:.03125;stroke-linecap:round;stroke-linejoin:round;paint-order:markers stroke fill"><path fill="#f9f9f9" d="M16 0A16 16 0 0 0 0 16a16 16 0 0 0 16 16h3c7.202 0 13-5.798 13-13v-6c0-7.202-5.798-13-13-13z"/><path fill="#1a1a1a" d="M1 15c.345-3.71 2.173-7.572 5-10 2.923-2.51 7.148-3.482 11-3.551 3.118-.057 6.402.826 9 2.551 1.778 1.18 3.294 2.986 4 5 .22.63 0 2 0 2s-1.254-1.423-2-2c-1.223-.946-2.535-1.855-4-2.35-2.545-.86-5.317-1.094-8-.965-2.045.098-4.204.332-6 1.315-1.654.905-3.053 2.37-4 4-.845 1.456-1.194 3.194-1.33 4.871A8.7 8.7 0 0 0 5 19c.209.715 1 2 1 2s-1 0-2-1c0 1.021 1 3 2 4-1 0-2.291-1.03-3-2-1.43-1.96-2.225-4.584-2-7"/><path fill="#1a1a1a" stroke="#1a1a1a" stroke-width=".25" d="M24 19c-1 0-2.756.416-4 1-1.73.812-3.373 1.984-4.626 3.39-.827.447-3.123-.724-3.687-1.529-.523.746.2 2.177.387 2.46-1.822.29-3.42-.62-4.79-2.087-1.027.882.765 2.336 1.188 2.766-1.227-.161-3.737-.046-3.788.412-.088.788 2.066 1.235 2.066 1.235s-1.117.152-1.13.374c-.03.535 2.922.563 2.922.563s-1.432.81-1.176.974c.346.22 2.133-.012 3.23-.218 2.065-.387 7.482-2.05 9.404-3.34 1.229-1.122 8-6 4-6"/><path fill="#1a1a1a" stroke="#1a1a1a" d="M21.16 12.839c-.116-.134-3.641.808-5.04 1.296-2.124.742-4.165 1.738-4.094 1.865.118.212 10.744-.573 12.493 1 .494.445.457 1.639.107 2.21-.857 1.398-1.945.834-4.548 1.875-5.581 2.231-6.769 4.306-6.61 7.68.044.93.656 1.668 2.014 1.936.681.207 2.662.347 3.96.106 2.63-.488 5.37-1.348 7.408-3.08 1.981-1.683 3.756-4.05 4.117-6.624.359-2.558-.333-5.59-2.123-7.451-1.16-1.207-3.098-1.51-4.771-1.565-1.002-.032-2.11.226-2.913.752"/><path fill="#1a1a1a" d="M21.481 21.466s-2.45.069-5.62 2.766c-1.116.95-2.009 2.052-2.94 3.16-.457.544-1.72 1.229-1.86 1.84-.088.384.313.492.313.492s-.613.608-.413.955c.232.402 1.169-.163 1.169-.163s-.211.386.098.536c.327.16 1.697-.183 2.435-.627.919-.023 1.299-.12 1.998-.333.596-.181 1.73-.703 1.73-.703s-.281.27.292.436c.258.075.543-.058.785-.173.625-.298 1.626-1.293 1.626-1.293s-.254.257.094.467c.453.273 2.633-.917 3.506-1.654 1.225-1.031 2.327-2.627 2.907-3.733.69-1.316.907-2.88.907-2.88"/><path fill="#f9f9f9" d="M20 22c-1 1-3.087 2.435-4.47 3.825C14.245 27.118 12.667 28.642 12 30c2.203.95 4.054.46 6 0 2.176-.514 4.185-1.694 6-3 1.15-.827 2.078-1.933 3.01-3 1.498-1.717.99-3 .99-4 1 1 .994 1.946 1 3 .006 1-1.75 2.897-3 4-2.015 1.779-4.718 3.034-7 4-2.572 1.09-5.278 1-8.376-.268C9.735 30.37 11.291 28.71 12 28c2-2 6-6 8-6"/><path fill="#f9f9f9" d="M19 25c.236.236-.236.764 0 1 .943.943 3.057-.943 4 0 .236.236.205.737 0 1-.951 1.219-5.755 1.245-6 1-.471-.471-.255-1.384 0-2a1.9 1.9 0 0 1 1-1c.308-.128.764-.236 1 0"/><rect width="2" height="2" x="23" y="13" fill="#fc0" ry=".495"/></g></svg>