<svg xmlns="http://www.w3.org/2000/svg" viewBox="0 0 1024 1024"><desc>A Pied-Currawong (a black bird with white highlights on tail and wings and a striking yellow eye) from South-East Queensland posed in a G-shape.</desc><g style="stroke-linecap:round;stroke-linejoin:round;paint-order:markers stroke fill"><path fill="#1a1a1a" d="M29.905 476.644c8.842-120.62 75.112-242.77 165.89-322.685C281.55 78.466 403.86 41.5 518.026 37.154c111.567-4.248 230.419 26.295 322.661 89.868 40.204 27.708 72.246 57.105 98.686 97.893 14.183 21.878 20.097 36.228 33.049 81.083 14.065 48.708-78.549-.035-115.718-21.332-31.592-18.1-62.897-37.924-97.505-49.237-79.618-26.027-164.318-46.475-247.91-41.098-70.42 4.53-142.55 20.89-202.689 61.096-45.414 30.078-88.345 74.687-113.57 124.292-13.623 27.993-37.803 78.285-45.572 128.161-8.217 130.432 62.68 188.187 62.68 188.187s-31.213-10.985-44.18-20.83c-10.428-7.917-25.68-29.718-25.68-29.718s-2.068 26.357 27.244 72.16c29.125 45.51 51.89 54.21 51.474 59.285-31.866 7.527-78.79-18.219-104.515-46.335-60.378-65.991-93.114-164.78-86.575-253.985"/><path fill="#f9f9f9" stroke="#f9f9f9" stroke-width="8" d="M936.086 235.161c19.59 17.143 28.503 45.242 34.147 70.655 8.206 36.947-1.215 113.541-1.215 113.541-33.548-75.195-55.639-99.648-111.38-138.172-10.525-18.496-27.608-32.864-44.272-48.01-27.54-25.03-90.352-65.585-90.352-65.585s157 18.502 213.072 67.57M113.49 581.767c-3.82-38.772 6.337-78.435 19.907-114.839 23-61.7 59.383-91.504 59.383-91.504s-31.168 60.643-41.349 131.579c-8.217 130.432 60.706 189.064 60.706 189.064s-30.841-11.495-44.18-20.83c-12.234-8.562-23.762-18.957-31.823-31.525-11.869-18.505-20.488-40.066-22.644-61.945"/><path fill="#1a1a1a" d="M770.348 386.291c-32.083-1.033-67.512 7.202-93.29 23.998-.165-.079-.3-.204-.5-.246-.375-.078-.824-.112-1.365-.117-1.081-.01-2.52.107-4.297.332-3.552.45-8.446 1.34-14.351 2.576-11.811 2.473-27.663 6.33-44.797 10.809-34.268 8.956-73.653 20.392-96.055 28.21-34.019 11.872-67.793 26.564-92.79 38.8-12.5 6.117-22.801 11.62-29.852 15.857-3.526 2.118-6.236 3.917-8.018 5.336-.89.709-1.55 1.316-1.976 1.857-.214.27-.374.524-.465.795s-.105.598.049.873c.16.286.396.404.664.516s.593.201.99.285c.793.167 1.871.302 3.238.416 2.734.227 6.613.366 11.502.443 9.78.155 23.592.061 40.235-.084 33.285-.29 77.89-.787 124.119.076 46.229.864 94.085 3.088 133.86 8.239 39.773 5.15 71.478 13.295 85.265 25.697 7.777 6.996 11.846 18.33 12.556 30.205s-1.943 24.265-7.476 33.297c-13.198 21.54-28 28.382-49.33 33.54l-.034-.03c14.752-6.093 22.32-16.537 25.762-25.52 3.614-9.433 3.055-17.543 3.055-17.543a4 4 0 0 0-4.6-3.678s-74.423 11.38-136.142 44.903c-48.182 26.17-96.196 53.859-136.639 98.963-5.327 2.702-13.875 3.227-24.064 1.449-10.422-1.819-22.398-5.86-34.133-11.154-23.47-10.59-46.12-26.601-54.2-38.133a4 4 0 0 0-6.548-.002c-9.193 13.097-8.306 27.159-4.373 38.408 2.837 8.115 6.786 14.332 10.05 19.19-54.622 7.514-98.965-1.732-140.382-46.108a4 4 0 0 0-5.532-.305c-9.007 7.742-12.5 17.311-11.826 26.668.675 9.358 5.07 18.417 10.76 26.813 8.342 12.308 18.548 22.208 26.572 29.836-18.586-1.9-41.294-3.16-61.234-2.701-12.138.279-23.116 1.162-31.504 3.007-4.194.923-7.745 2.055-10.633 3.72-2.888 1.663-5.445 4.22-5.838 7.743-.934 8.384 4.501 15.759 11.776 22.174 7.274 6.416 16.887 12.197 26.533 17.184 7.963 4.117 15.649 7.483 22.3 10.246-1.832.176-3.284.24-5.175.463-5.746.678-11.516 1.568-16.154 2.834-2.32.633-4.35 1.33-6.133 2.353s-3.895 2.677-4.069 5.658c-.23 3.972 2.417 7.183 5.504 9.245 3.088 2.062 7 3.556 11.58 4.865 9.163 2.618 21.017 4.331 32.887 5.527 12.848 1.294 24.78 1.906 33.867 2.238-3.395 2.107-6.79 4.17-10.488 6.7-5.313 3.635-10.38 7.406-13.898 10.949-1.76 1.771-3.193 3.396-4.05 5.603-.428 1.104-.718 2.486-.353 4.008.366 1.523 1.483 2.896 2.668 3.65 4.352 2.773 10.209 3.24 17.928 3.44s17.111-.288 27.238-1.195c20.254-1.815 43.398-5.33 61.078-8.647 8.171-1.532 16.928-3.384 26.118-5.531 2.52-2.37 5.19-4.67 7.955-6.906 12.713-10.28 25.158-19.572 31.378-26.975 29.754-35.404 57.81-70.76 94.15-101.674 51.372-43.699 97.003-64.395 138.595-74.601 23.873-5.858 57.704-15.274 58.92-9.42 1.608 7.737-9.85 4.844-58.655 21.998-31.527 11.08-74.23 32.28-124.324 74.892-35.105 29.861-63.173 65.535-93.031 101.065-8.39 9.984-21.966 19.61-34.235 29.53s-24.708 17.783-26.084 23.76c-.876 3.806.131 4.412 1.676 5.708s3.451 1.9 3.451 1.9c2.545.68 18.414.891 18.414.891a2971 2971 0 0 0-12.837 11.26c-7.243 6.413-20.078 19.18-17.489 23.18 3.673 5.676 20-1.442 29.39-5.606 7.145-3.168 21.165-10.002 21.165-10.002s-17.954 17.918-13.785 24.49c4.29 5.404 23.021-.668 32.822-4.75 16.344-6.807 32.144-15.783 44.97-21.27 28.963.266 41.672-.745 63.938-7.523 17.885-5.444 51.81-16.82 77.182-33.6 8.426 12.219-10.72 22.864-10.72 22.864s8.877 4.324 20.247-2.574c23.372-14.178 50.54-31.42 63.68-52.157 8.71.848 5.403 14.508.55 24.477 10.774-1.695 33.247-10.815 41.97-15.176 22.285-11.145 45.27-25.957 58.576-37.011 37.174-30.886 70.265-72.903 88.13-107.713 39.153-76.284 36.83-106.276 41.25-106.346 6.188-.097-2.025 59.55-22.689 104.2-18.671 40.344-53.69 90.932-93.977 124.88-22.486 18.949-69.18 45.446-96.38 53.621-21.658 6.508-27.143 2.254-31.596-3.789-17.385 16.265-28.886 25.318-40.406 30.805-12.875 6.17-39.833 14.04-47.356-3.407-8.88 4.035-33.056 14.845-49.879 19.965-18.52 5.638-31.033 6.663-48.86 5.354 4.146 1.266 8.56 2.367 13.247 3.295l.016.004.03.008c11.006 3.324 32.27 6.082 56.036 7.066 23.794.985 50.055.183 70.893-3.688 84.165-15.634 171.945-43.147 237.254-98.642C922.983 833.745 982.7 757.494 993 674.729c17.692-142.165-35.423-203.61-67.17-231.733-55.694-49.338-101.924-54.98-155.482-56.705m-386.07 128.848c1.813 1.987 63.217 1.21 108.894.841-17.933.076-39.457-.159-53.91-.033-16.642.145-30.453.239-40.211.084-4.88-.077-8.746-.217-11.436-.441-1.344-.112-2.396-.245-3.115-.397-.084-.017-.148-.036-.223-.054"/><path fill="#f9f9f9" d="M583.82 779.502c-22.275 9.242-47.249 25.12-53.892 38.013-7.755 12.457 16.443 10.47 24.014 7.944 7.616-2.746 8.807-3.017 18.426-8.018-19.347 14.696-29.108 21.373-45.685 40.78-3.996 4.677-11.115 12.74-6.823 17.147 9.451 9.707 52.18-21.998 71.751-36.478 9.657-7.145 23.64-21.143 23.64-21.143s-29.37-2.08-22.253-11.319c-24.72-2.235-5.66-24.976-9.178-26.926m70.874 61.367c-10.626 1.507 2.452-7.387.49-10.148-21.002 4.37-30.065 3.1-31.042-9.153-31.986 22.311-68.96 50.296-95.467 78.368-4.838 5.122-15.371 18.005-10.706 24.056 5.778 7.495 24.241-.674 33.736-5.117 18.597-8.703 34.538-20.33 52.064-31.045-4.054 7.56-12.896 19.548-8.493 24.403 6.21 6.85 24.98-7.32 34.16-14.548 8.591-6.765 18.374-17.272 23.08-21.966-6.458 17.45.998 22.125 17.278 11.78 8.258-5.249 15.58-11.575 23.172-17.735-3.833 6.697-2.682 11.318 1.736 14.208 9.315 6.09 54.598-11.173 69.498-26.843 7.87-9.21 17.237-21.08 16.848-33.23-.282-8.797-20.956 6.016-28.793 8.02-17.628 4.505-26.246-7.407-26.246-7.407s-17.487 23.676-35.821 20.47c-14.868-2.6-14.535-12.043-14.535-12.043s-9.685 5.307-20.96 7.93"/><path fill="#fc0" d="M786.667 444.273a22.024 24.74 0 0 1-21.965 24.74 22.024 24.74 0 0 1-22.083-24.605 22.024 24.74 0 0 1 21.843-24.873 22.024 24.74 0 0 1 22.203 24.47"/></g></svg>