<svg xmlns="http://www.w3.org/2000/svg" viewBox="0 0 1024 1024"><g style="stroke-width:8;stroke-linecap:round;stroke-linejoin:round"><path fill="#f9f9f9" d="M778.55 372.611c-35.244-.254-79.662 4.923-106.532 24.889-3.825-4.382-113.445 25.071-159.487 41.139-37.052 12.93-138.777 54.38-145.299 81.96-5.707 24.139 32.715 17.25 151.448 17.568 75.59.202 159.565.734 227.892 16.429 25.677 5.898 33.782 25.663 23.738 33.886-3.21 2.627-30.574-5.117-140.269 42.65-34.561 15.05-108.86 64.542-144.635 100.507-20.905 6.088-46.273-3.145-66.773-17.578s-36.135-34.067-46.059-30.6c-25.808 7.412-26.575 53.42-17.43 59.752-99.698 10.143-171.016-98.762-184.045-169.925-8.544-46.667 1.029-96.974 18.357-141.14 21.328-54.36 53.775-109.18 101.565-142.736 59.555-41.82 121.901-74.202 247.414-73.294 85.723.62 179.895 11.403 268.455 61.045 37.165 20.833 71.83 45.508 116.569 100.641 17.958 22.131 36.951 63.106 49.08 63.128 17.315.031 17.35-91.168 12.447-125.648-10.64-74.84-55.19-125.806-106.753-168.915C771.873 57.451 626.987 21.952 529.735 21.952c-155.814 0-246.877 54.772-312.17 102.53C151.423 172.86 98.428 240.656 59.48 312.757c-22.108 40.926-35.568 87.35-40.186 133.636-5.535 55.486-.847 113.27 15.577 166.56 13.887 45.054 38.233 87.566 68.392 123.805 15.203 18.266 55.108 45.233 55.108 45.233s-19.724 3.81-23.56 16.422c-9.278 30.496 30.726 54.513 33.7 56.25-.751-.33-3.74-.545-4.972 15.904-2.116 28.268 58.062 31.737 58.062 31.737s-9.073 12.838-.775 24.29c6.922 9.555 16.808 14.64 49.45 12.329 16.798-1.19 60.604-7.2 79.05-10.796-1.021 1.466-3.728 5.561-3.926 11.871-.392 12.463 6.258 16.964 6.258 16.964s-22.383 24.93-2.568 39.082c12.094 8.638 27.89 1.143 30.465-.214.316 5.24 3.617 7.021 9.021 10.505 9.989 6.439 48.663.625 73.132-13.78 26.477 23.739 122.537 13.339 166.44 11.17 72.788-3.611 196.95-56.813 243.428-100.96 65.935-62.629 126.189-156.523 134.795-221.713 11.513-87.212-.274-187.482-65.105-248.994-36.362-34.501-103.978-59.024-162.716-59.448"/><path fill="#1a1a1a" d="M118.153 734.077c-42.768-52.473-86.575-112.91-86.575-253.985 0-120.524 77.962-240.12 168.34-319.746C285.32 85.102 393.902 40.602 519.698 40.602c150.721 0 223.925 37.587 319.897 93.553 41.99 24.486 78.112 60.866 104.552 101.654 14.183 21.878 13.93 28.599 26.882 73.455 14.065 48.708-.338 113.541-.338 113.541s-59.27-129.34-209.82-183.928c-79.18-28.71-132.057-41.701-247.91-41.098-65.516 0-142.55 20.89-202.689 61.096-48.924 32.71-94.487 73.81-117.957 125.608-18.449 40.716-39.12 94.079-41.185 126.845-8.217 130.432 62.68 188.187 62.68 188.187s-31.213-10.985-44.18-20.83c-10.428-7.917-25.68-29.718-25.68-29.718s-2.068 26.357 27.244 72.16c29.125 45.509 51.89 54.21 51.474 59.285-31.866 7.527-73.028-7.702-104.515-46.335"/><path fill="#f9f9f9" stroke="#1a1a1a" d="M937.759 238.609c19.59 17.143 27.626 45.242 33.27 70.655 8.206 36.947-.338 113.541-.338 113.541-33.548-75.195-63.536-92.628-110.942-135.54-10.524-18.496-28.046-35.496-44.71-50.642-27.54-25.03-90.352-65.585-90.352-65.585s157 18.502 213.072 67.57M115.163 585.215c-3.82-38.772 4.463-78.939 17.933-115.497 11.585-31.442 52.714-85.596 52.714-85.596s-32.616 94.44-34.68 127.206c-8.217 130.432 62.68 188.187 62.68 188.187s-30.841-11.495-44.18-20.83c-12.234-8.562-23.762-18.957-31.823-31.525-11.869-18.505-20.488-40.066-22.644-61.945"/><path fill="#1a1a1a" stroke="#1a1a1a" d="M736.352 648.594c30.368-11.053 28.378-39.963 28.378-39.963s-73.979 11.407-134.843 44.465c-48.383 26.279-96.165 53.844-136.234 98.81-26.473 14.335-99.947-23.155-117.986-48.905-16.751 23.865 3.328 49.417 9.3 58.487-58.304 9.252-106.36.408-150.202-46.565-32.864 28.246 20.54 71.781 34.07 85.536-39.265-5.161-114.772-7.707-116.406 6.96-2.81 25.204 74.449 51.82 74.449 51.82s-44.94 1.776-45.353 8.88c-.995 17.106 93.503 18.022 93.503 18.022s-45.822 25.94-37.63 31.157c11.072 7.053 68.236-.372 103.358-6.96 66.073-12.393 171.49-46.21 232.999-87.513 36.622-24.59 112.67-92.36 147.738-125.22 44.662-41.848 2.304-44.44 14.86-49.01"/><path fill="#f9f9f9" d="M377.03 710.264c-11.077 17.736 7.5 44.37 11.343 48.5 1.35-.968.337-11.54 6.729-16.465 1.767-1.362 12.749-3.115 20.642 13.805 5.195-5.662 11.67-15.87-14.887-27.086-11.146-5.3-13.384-8.266-23.828-18.754m-141.585 10.334c-22.196 22.118 17.136 57.708 30.666 71.463-3.625-10.741-2.575-15.835 2.498-20.477 5.693-5.208 18.788-9.257 53.721 10.777-5.132-20.081-28.106-21.812-44.648-28.685-17.736-7.37-16.85-9.376-42.237-33.078m-12.99 79.724c-11.472.489-63.684-1.043-64.807 8.46-2.206 18.682 66.834 48.93 68.776 45.69 1.416-2.363-14.194-14.223-9.97-24.835 3.33-8.371 32.075-13.908 32.075-13.908-.601-4.703-3.936-14.038-26.074-15.407m.565 63.229c-5.009-.36-36.143 1.625-36.274 5.873-.204 6.64 56.496 12.405 56.734 11.668.666-2.055-21.815-7.15-20.46-17.541m60.857 29.498c-18.625.54-34.479 12.328-41.486 21.754-1.599 2.15 66.86.993 70.902-4.239.938-1.214-19.168-3.343-16.154-15.925a45 45 0 0 0-13.262-1.59"/><path fill="#1a1a1a" stroke="#1a1a1a" d="M772.004 390.24c-34.251-.248-67.53 7.23-93.211 24.041-3.717-4.258-116.517 25.877-161.262 41.493-67.99 23.727-135.045 58.74-132.781 62.802 2.764 4.958 91.01-.582 136.492.642 58.695 1.58 118.067-1.29 175.936 8.65 29.954 5.145 73.884 14.06 87.343 26.167 15.824 14.234 16.726 46.532 5.172 64.136-37.879 57.712-62.243 26.68-145.523 59.983-178.598 71.422-209.217 167.455-211.51 245.774-.848 28.97 20.983 53.384 64.448 61.967 35.981 7.106 73.88 1.791 126.739-.17 70.776-2.626 188.595-52.405 233.764-95.31 64.08-60.865 123.068-149.954 131.432-213.309 11.19-84.757-1.95-184.143-64.354-236.802-34.188-28.85-95.6-49.653-152.685-50.065"/><path fill="#1a1a1a" d="M689.067 690.347s-78.374 2.222-179.84 88.533c-35.723 30.387-64.275 65.653-94.08 101.12-14.612 17.387-55.016 39.313-59.52 58.88-2.829 12.285 10.014 15.73 10.014 15.73s-19.604 19.475-13.214 30.563c7.407 12.855 37.399-5.21 37.399-5.21s-6.753 12.358 3.134 17.157c10.487 5.09 54.306-5.875 77.94-20.065 29.392-.75 41.552-3.844 63.927-10.655 19.063-5.803 55.387-22.497 55.387-22.497s-9.028 8.634 9.326 13.96c8.229 2.389 17.364-1.858 25.1-5.543 20.013-9.533 52.053-41.387 52.053-41.387s-8.154 8.224 2.987 14.934c14.508 8.738 84.252-29.345 112.213-52.907 39.178-33.015 74.44-84.06 93.014-119.467 22.093-42.118 29.013-92.16 29.013-92.16"/><path fill="#f9f9f9" d="M873.61 757.796c-17.865 34.81-50.956 76.827-88.13 107.713-13.305 11.054-36.29 25.867-58.576 37.012-8.722 4.361-31.196 13.48-41.969 15.175 4.852-9.969 8.159-23.628-.551-24.476-13.14 20.736-40.307 37.978-63.679 52.156-11.37 6.898-20.248 2.573-20.248 2.573s19.146-10.645 10.72-22.863c-25.371 16.779-59.297 28.156-77.182 33.6-22.266 6.778-34.975 7.788-63.937 7.523-12.827 5.486-28.626 14.463-44.97 21.27-9.801 4.082-28.533 10.154-32.823 4.75-4.169-6.572 13.784-24.49 13.784-24.49s-14.02 6.833-21.164 10.001c-9.39 4.164-25.717 11.284-29.39 5.607-2.589-4.001 10.245-16.767 17.488-23.18a2971 2971 0 0 1 12.838-11.26s-15.868-.21-18.413-.89c0 0-1.907-.606-3.452-1.902s-2.551-1.902-1.675-5.707c1.376-5.978 13.815-13.838 26.084-23.76 12.269-9.921 25.844-19.546 34.234-29.53 29.858-35.53 57.927-71.203 93.032-101.064 50.094-42.613 92.796-63.813 124.323-74.894 48.804-17.154 60.263-14.26 58.655-21.997-1.216-5.854-35.047 3.562-58.92 9.42-41.592 10.206-87.223 30.903-138.594 74.602-36.341 30.913-64.396 66.27-94.15 101.674-6.22 7.403-18.667 16.694-31.38 26.974-12.711 10.28-23.46 21.925-26.588 35.513-1.952 8.48 2.041 15.74 6.21 19.238-4.508 4.987-8.02 10.86-9.965 17.312-1.235 4.452-1.498 9.86 1.286 14.69 3.192 5.539 9.439 7.87 14.69 8.025 7.216.246 13.99-2.179 20.346-5.292-.12 5.444 3.844 9.5 8.44 11.944 5.169 2.508 10.396 2.243 16.87 1.663s13.952-1.986 21.833-3.994c15.137-3.858 31.872-11.563 44.446-18.813 23.959 2.49 37.474 2.295 59.444-4.393 16.823-5.12 40.998-15.931 49.879-19.965 7.523 17.447 34.48 9.576 47.355 3.406 11.52-5.487 23.021-14.54 40.406-30.805 4.453 6.043 9.939 10.298 31.597 3.79 27.2-8.175 73.894-34.673 96.38-53.622 40.286-33.948 75.306-84.535 93.977-124.88 20.664-44.649 28.878-104.297 22.69-104.2-4.42.07-2.098 30.062-41.25 106.346"/><path fill="#f9f9f9" d="M585.493 782.95c-22.275 9.242-47.249 25.12-53.892 38.013-7.755 12.457 16.443 10.47 24.014 7.944 7.616-2.746 8.807-3.017 18.426-8.018-19.347 14.696-29.108 21.373-45.685 40.78-3.996 4.677-11.115 12.74-6.823 17.147 9.451 9.707 52.18-21.998 71.751-36.478 9.657-7.145 23.64-21.143 23.64-21.143s-29.37-2.08-22.253-11.319c-24.72-2.235-5.66-24.976-9.178-26.926m70.874 61.367c-10.626 1.507 2.452-7.387.49-10.148-21.002 4.37-30.065 3.1-31.042-9.153-31.986 22.311-68.96 50.296-95.467 78.368-4.838 5.122-15.371 18.005-10.706 24.056 5.778 7.495 24.241-.674 33.736-5.117 18.597-8.703 34.538-20.33 52.064-31.045-4.054 7.56-12.896 19.548-8.493 24.403 6.21 6.85 24.98-7.321 34.16-14.548 8.591-6.765 18.374-17.272 23.08-21.966-6.458 17.45.998 22.125 17.278 11.78 8.258-5.249 15.58-11.575 23.172-17.735-3.833 6.697-2.682 11.318 1.736 14.208 9.315 6.09 54.598-11.173 69.498-26.843 7.87-9.211 17.237-21.08 16.848-33.23-.282-8.797-20.956 6.016-28.793 8.02-17.628 4.505-26.246-7.407-26.246-7.407s-17.487 23.676-35.821 20.47c-14.868-2.6-14.535-12.043-14.535-12.043s-9.685 5.307-20.96 7.93"/><path fill="#fc0" d="M788.34 447.721a22.024 24.74 0 0 1-21.965 24.74 22.024 24.74 0 0 1-22.083-24.605 22.024 24.74 0 0 1 21.843-24.873 22.024 24.74 0 0 1 22.203 24.469"/></g></svg>